<svg xmlns="http://www.w3.org/2000/svg" version="1.1" xmlns:xlink="http://www.w3.org/1999/xlink" xmlns:svgjs="http://svgjs.dev/svgjs" width="100%" height="100%" viewBox="0 0 1000 600"><rect width="1000" height="600" x="0" y="0" fill="#ffe8f5"/><g><rect width="333.3333333333333" height="333.3333333333333" y="307.4177263605669" fill="#8000ff" transform="matrix(0.4382958424172358,0,0,0.4382958424172358,0,92.21078316667406)" x="285.19549560546875"/><path d="M414.46458067001913 549.0843987673679L414.46458067001913 549.0843987673679Q410.04593050582565 549.0843987673679 407.61713604471265 546.6848668901238Q405.1883415835997 544.2560724290108 405.1883415835997 539.6033215938667L405.1883415835997 539.6033215938667L405.1883415835997 408.5654710292416Q405.1883415835997 403.94198277796636 407.61713604471265 401.51318831685336Q410.04593050582565 399.08439385574036 414.66941875710097 399.08439385574036L414.66941875710097 399.08439385574036L491.1618129902251 399.08439385574036Q494.7318482222225 399.08439385574036 496.6339161736965 400.98646180721437Q498.5359841251705 402.8885297586884 498.5359841251705 406.25372690360393L498.5359841251705 406.25372690360393Q498.5359841251705 409.8237621356013 496.6339161736965 411.72583008707534Q494.7318482222225 413.62789803854935 491.1618129902251 413.62789803854935L491.1618129902251 413.62789803854935L422.48252865007885 413.62789803854935L422.48252865007885 465.451934070249L486.7431628260316 465.451934070249Q490.313198058029 465.451934070249 492.3323163449783 467.35400202172303Q494.32217204805886 469.25606997319704 494.32217204805886 472.6212671181126L494.32217204805886 472.6212671181126Q494.32217204805886 476.19130235011 492.3323163449783 478.093370301584Q490.313198058029 479.995438253058 486.7431628260316 479.995438253058L486.7431628260316 479.995438253058L422.48252865007885 479.995438253058L422.48252865007885 539.6033215938667Q422.48252865007885 549.0843987673679 414.46458067001913 549.0843987673679Z " fill="#ffe8f5" transform="matrix(0.4382958424172358,0,0,0.4382958424172358,0,92.21078316667406)"/><path d="M710.9958537425282 548.6521969448278L710.9958537425282 548.6521969448278Q706.6451047216839 548.6521969448278 704.2536334055907 546.2895385361574Q701.8621620894974 543.8980672200641 701.8621620894974 539.3168149398373L701.8621620894974 539.3168149398373L701.8621620894974 410.2926155004937Q701.8621620894974 405.7401761276897 704.2536334055907 403.34870481159646Q706.6451047216839 400.95723349550326 711.197544094488 400.95723349550326L711.197544094488 400.95723349550326L786.5144840977134 400.95723349550326Q790.0296588032963 400.95723349550326 791.9024977857789 402.83007247798594Q793.7753367682616 404.70291146046856 793.7753367682616 408.0163958140917L793.7753367682616 408.0163958140917Q793.7753367682616 411.5315705196746 791.9024977857789 413.4044095021572Q790.0296588032963 415.27724848463987 786.5144840977134 415.27724848463987L786.5144840977134 415.27724848463987L718.8905903763782 415.27724848463987L718.8905903763782 466.30490753043654L782.1637350768692 466.30490753043654Q785.6789097824519 466.30490753043654 787.6670003946258 468.17774651291916Q789.6262780993769 470.05058549540183 789.6262780993769 473.364069849025L789.6262780993769 473.364069849025Q789.6262780993769 476.8792445546078 787.6670003946258 478.75208353709047Q785.6789097824519 480.62492251957315 782.1637350768692 480.62492251957315L782.1637350768692 480.62492251957315L718.8905903763782 480.62492251957315L718.8905903763782 539.3168149398373Q718.8905903763782 548.6521969448278 710.9958537425282 548.6521969448278ZM851.2282741693449 549.0843905561699L851.2282741693449 549.0843905561699Q836.5048784762889 549.0843905561699 825.728851100158 542.6591122008832Q814.9240108166042 536.2050209381738 809.0173647949282 524.5069805245129Q803.1107187732521 512.7801272034292 803.1107187732521 496.7889635837696L803.1107187732521 496.7889635837696Q803.1107187732521 484.7739811884578 806.4242031268752 475.1216572018164Q809.7376874804984 465.469333215175 816.1917787432078 458.64067415596907Q822.6170570984945 451.7832021893403 831.4338067698743 448.15277585406614Q840.2505564412543 444.5223495187921 851.2282741693449 444.5223495187921L851.2282741693449 444.5223495187921Q865.9804827698237 444.5223495187921 876.7565101459546 450.94762787407876Q887.5325375220856 457.3729062293654 893.4679964511845 469.0997595504491Q899.3746424728606 480.8266128715328 899.3746424728606 496.7889635837696L899.3746424728606 496.7889635837696Q899.3746424728606 508.8327588865042 896.0611581192375 518.3698312434543Q892.7188608581914 527.9069036004045 886.2935825029048 534.8796271967245Q879.8683041476181 541.8235378856218 871.0515544762383 545.4539642208958Q862.2348048048584 549.0843905561699 851.2282741693449 549.0843905561699ZM851.2282741693449 535.5999498822948L851.2282741693449 535.5999498822948Q860.5636561743354 535.5999498822948 867.6228184929239 531.018697602068Q874.6819808115123 526.466258229264 878.5140974987461 517.7647601875753Q882.3462141859798 509.0344492384639 882.3462141859798 496.7889635837696L882.3462141859798 496.7889635837696Q882.3462141859798 477.91650922182896 873.961658125942 467.9760561609595Q865.5482891584816 458.0067901926672 851.2282741693449 458.0067901926672L851.2282741693449 458.0067901926672Q841.6912018123948 458.0067901926672 834.7472911234976 462.4727908432028Q827.8033804346003 466.93879149373834 823.9712637473665 475.52503790573576Q820.11033415271 484.14009722515596 820.11033415271 496.7889635837696L820.11033415271 496.7889635837696Q820.11033415271 515.4597275937506 828.6389547498618 525.544245191734Q837.1387624395908 535.5999498822948 851.2282741693449 535.5999498822948ZM966.5951554902765 549.0843905561699L966.5951554902765 549.0843905561699Q951.8429468897978 549.0843905561699 941.0669195136668 542.6591122008832Q930.2908921375358 536.2050209381738 924.3554332084369 524.5069805245129Q918.4487871867609 512.7801272034292 918.4487871867609 496.7889635837696L918.4487871867609 496.7889635837696Q918.4487871867609 484.7739811884578 921.762271540384 475.1216572018164Q925.10456880143 465.469333215175 931.5298471567166 458.64067415596907Q937.9551255120033 451.7832021893403 946.7718751833831 448.15277585406614Q955.588624854763 444.5223495187921 966.5951554902765 444.5223495187921L966.5951554902765 444.5223495187921Q981.3185511833324 444.5223495187921 992.0945785594633 450.94762787407876Q1002.8994188430172 457.3729062293654 1008.8060648646933 469.0997595504491Q1014.7127108863695 480.8266128715328 1014.7127108863695 496.7889635837696L1014.7127108863695 496.7889635837696Q1014.7127108863695 508.8327588865042 1011.3992265327461 518.3698312434543Q1008.085742179123 527.9069036004045 1001.6316509164135 534.8796271967245Q995.2063725611268 541.8235378856218 986.389622889747 545.4539642208958Q977.5728732183671 549.0843905561699 966.5951554902765 549.0843905561699ZM966.5951554902765 535.5999498822948L966.5951554902765 535.5999498822948Q975.9305374952669 535.5999498822948 982.9608869064325 531.018697602068Q990.020049225021 526.466258229264 993.8521659122548 517.7647601875753Q997.7130955069114 509.0344492384639 997.7130955069114 496.7889635837696L997.7130955069114 496.7889635837696Q997.7130955069114 477.91650922182896 989.2997265394508 467.9760561609595Q980.8863575719903 458.0067901926672 966.5951554902765 458.0067901926672L966.5951554902765 458.0067901926672Q957.0292702259035 458.0067901926672 950.0853595370063 462.4727908432028Q943.1414488481091 466.93879149373834 939.3093321608753 475.52503790573576Q935.4772154736416 484.14009722515596 935.4772154736416 496.7889635837696L935.4772154736416 496.7889635837696Q935.4772154736416 515.4597275937506 943.9770231633706 525.544245191734Q952.4768308530995 535.5999498822948 966.5951554902765 535.5999498822948ZM1079.4265009580008 549.0843905561699L1079.4265009580008 549.0843905561699Q1067.6132089146486 549.0843905561699 1059.6320335585303 544.820080257594Q1051.6508582024119 540.5845828664409 1047.7034898854868 532.3729042509401Q1043.7561215685619 524.190038542862 1043.7561215685619 512.347933592087L1043.7561215685619 512.347933592087L1043.7561215685619 459.44743556380774L1029.8683001907675 459.44743556380774Q1026.3243125777617 459.44743556380774 1024.4514735952791 457.6898482110163Q1022.6074475202192 455.9322608582249 1022.6074475202192 452.82046685656144L1022.6074475202192 452.82046685656144Q1022.6074475202192 449.7086728548979 1024.4514735952791 448.0375242243749Q1026.3243125777617 446.39518850127473 1029.8683001907675 446.39518850127473L1029.8683001907675 446.39518850127473L1043.7561215685619 446.39518850127473L1043.7561215685619 422.538101155188Q1043.7561215685619 418.3890424863033 1046.0323412549637 416.19926152216976Q1048.3085609413658 414.038293465459 1052.255929258291 414.038293465459L1052.255929258291 414.038293465459Q1056.2032975752159 414.038293465459 1058.3930785393495 416.19926152216976Q1060.5540465960603 418.3890424863033 1060.5540465960603 422.538101155188L1060.5540465960603 422.538101155188L1060.5540465960603 446.39518850127473L1086.6873536285489 446.39518850127473Q1090.2313412415547 446.39518850127473 1092.1041802240372 448.0375242243749Q1093.9482062990971 449.7086728548979 1093.9482062990971 452.82046685656144L1093.9482062990971 452.82046685656144Q1093.9482062990971 455.9322608582249 1092.1041802240372 457.6898482110163Q1090.2313412415547 459.44743556380774 1086.6873536285489 459.44743556380774L1086.6873536285489 459.44743556380774L1060.5540465960603 459.44743556380774L1060.5540465960603 510.70559786898684Q1060.5540465960603 522.518889912339 1065.5386795802065 528.6560391933975Q1070.5233125643526 534.7643755670333 1081.7315335518256 534.7643755670333L1081.7315335518256 534.7643755670333Q1085.6500889613278 534.7643755670333 1088.473753888763 533.9288012517718Q1091.2686059087757 533.0932269365103 1093.1414448912583 533.0932269365103L1093.1414448912583 533.0932269365103Q1094.9854709663182 532.8915365845506 1096.253238892922 534.360994863114Q1097.4921939121027 535.8016402342545 1097.4921939121027 539.3168149398373L1097.4921939121027 539.3168149398373Q1097.4921939121027 541.8235378856218 1096.54136796715 543.8980672200641Q1095.61935492962 545.9725965545064 1093.343135243218 546.8081708697679L1093.343135243218 546.8081708697679Q1090.8364122974335 547.6149322776066 1086.8026052582402 548.3640678705997Q1082.7687982190469 549.0843905561699 1079.4265009580008 549.0843905561699ZM1174.8548503423478 547.2115515736873L1123.2221202406722 547.2115515736873Q1118.6408679604453 547.2115515736873 1116.2493966443521 544.820080257594Q1113.8867382356816 542.4286089415008 1113.8867382356816 537.8761695686968L1113.8867382356816 537.8761695686968L1113.8867382356816 410.2926155004937Q1113.8867382356816 405.7401761276897 1116.2493966443521 403.34870481159646Q1118.6408679604453 400.95723349550326 1123.2221202406722 400.95723349550326L1123.2221202406722 400.95723349550326L1172.376940303986 400.95723349550326Q1187.5325296083843 400.95723349550326 1197.9916150028644 405.4232341460388Q1208.4795133047671 409.8892347965744 1214.0692173447924 418.3890424863033Q1219.6877342922403 426.8888501760323 1219.6877342922403 439.1343358307266L1219.6877342922403 439.1343358307266Q1219.6877342922403 452.82046685656144 1211.677746028699 461.9541585095922Q1203.6965706725807 471.087850162623 1190.010439646746 473.969140904904L1190.010439646746 473.969140904904L1190.010439646746 471.087850162623Q1205.5694096550633 472.93187623768284 1214.3861593264432 482.2672582426733Q1223.2029089978232 491.60264024766377 1223.2029089978232 506.95991990402155L1223.2029089978232 506.95991990402155Q1223.2029089978232 526.466258229264 1210.5540426392095 536.8389049014756Q1197.9051762805957 547.2115515736873 1174.8548503423478 547.2115515736873L1174.8548503423478 547.2115515736873ZM1130.4829729112203 479.9910385562713L1130.4829729112203 533.5254205478525L1173.2125146192475 533.5254205478525Q1189.8087492947861 533.5254205478525 1198.1068666325555 526.8696389331833Q1206.4049839703248 520.242670225937 1206.4049839703248 506.7582295520619L1206.4049839703248 506.7582295520619Q1206.4049839703248 493.0720985262271 1198.1068666325555 486.5315685412492Q1189.8087492947861 479.9910385562713 1173.2125146192475 479.9910385562713L1173.2125146192475 479.9910385562713L1130.4829729112203 479.9910385562713ZM1130.4829729112203 414.64336452133807L1130.4829729112203 466.30490753043654L1169.8990302656243 466.30490753043654Q1186.063071329821 466.30490753043654 1194.4764402972814 459.6779388231902Q1202.8609963573192 453.0221572085211 1202.8609963573192 440.5749812018671L1202.8609963573192 440.5749812018671Q1202.8609963573192 427.7244244912938 1194.4764402972814 421.18389450631594Q1186.063071329821 414.64336452133807 1169.8990302656243 414.64336452133807L1169.8990302656243 414.64336452133807L1130.4829729112203 414.64336452133807ZM1283.5659500486104 549.0843905561699L1283.5659500486104 549.0843905561699Q1273.1933033763985 549.0843905561699 1265.0104376683207 545.0217706095536Q1256.7987590528196 540.9879635703603 1252.044629328056 533.9288012517718Q1247.2616866958697 526.8696389331833 1247.2616866958697 518.1681408914947L1247.2616866958697 518.1681408914947Q1247.2616866958697 506.95991990402155 1252.9666423655858 500.5346415487349Q1258.6715980353024 494.10936319344825 1271.8390967275266 491.4009498957041Q1285.0354083271736 488.72134950538276 1307.855231006039 488.72134950538276L1307.855231006039 488.72134950538276L1317.1906130110297 488.72134950538276L1317.1906130110297 499.69906723347344L1308.0569213579988 499.69906723347344Q1291.2589963305004 499.69906723347344 1281.6066723438591 501.25496423430513Q1271.954348357218 502.81086123513694 1268.122231669984 506.5565392001022Q1264.2901149827503 510.2734042576447 1264.2901149827503 517.1308762242735L1264.2901149827503 517.1308762242735Q1264.2901149827503 525.6306839140025 1270.1967610044262 531.018697602068Q1276.1034070261026 536.4355241975563 1286.2743633463542 536.4355241975563L1286.2743633463542 536.4355241975563Q1294.5724806841238 536.4355241975563 1300.882507409719 532.4881558806313Q1307.2213470427373 528.5407875637063 1310.8517733780113 521.6833155970776Q1314.4821997132854 514.8546565378715 1314.4821997132854 505.9226552368004L1314.4821997132854 505.9226552368004L1314.4821997132854 482.2672582426733Q1314.4821997132854 469.4167015321 1309.2958763771799 463.7117458623836Q1304.109553041074 458.0067901926672 1292.2962609977217 458.0067901926672L1292.2962609977217 458.0067901926672Q1285.0354083271736 458.0067901926672 1277.7745556566254 459.8796291751499Q1270.5137029860773 461.7524681576325 1262.4172760002675 465.90152682651717L1262.4172760002675 465.90152682651717Q1259.507172350564 467.3421721976577 1257.4326430161213 466.8235398640471Q1255.3581136816792 466.30490753043654 1254.1191586624982 464.6337588999135Q1252.8802036433176 462.9914231768133 1252.649700383935 460.8016422126798Q1252.4480100319752 458.64067415596907 1253.6005263288878 456.56614482152673Q1254.7242297183773 454.4916154870844 1257.2309526641618 453.22384756048075L1257.2309526641618 453.22384756048075Q1266.3646443171926 448.6714081876767 1275.267832710841 446.5968788532344Q1284.1998340119121 444.5223495187921 1292.2962609977217 444.5223495187921L1292.2962609977217 444.5223495187921Q1305.3485080602545 444.5223495187921 1313.8483157499836 448.786659817368Q1322.3769363471356 453.0221572085211 1326.52599501602 461.6372165279413Q1330.6750536849047 470.2522758473615 1330.6750536849047 483.73671652123664L1330.6750536849047 483.73671652123664L1330.6750536849047 539.950698903139Q1330.6750536849047 544.0997575720237 1328.686963072731 546.3759772584258Q1326.7276853679798 548.6521969448278 1322.9820074030144 548.6521969448278L1322.9820074030144 548.6521969448278Q1319.0346390860896 548.6521969448278 1316.9601097516472 546.3759772584258Q1314.885580417205 544.0997575720237 1314.885580417205 539.950698903139L1314.885580417205 539.950698903139L1314.885580417205 523.7578449315198L1316.7584193996875 523.7578449315198Q1315.116083676587 531.6525815653698 1310.448392674092 537.242285605395Q1305.780701671597 542.8608025528429 1298.923229704968 545.9725965545064Q1292.0657577383392 549.0843905561699 1283.5659500486104 549.0843905561699ZM1392.4787401068324 549.0843905561699L1392.4787401068324 549.0843905561699Q1377.5536540618168 549.0843905561699 1369.6589174279666 539.950698903139Q1361.7929937015397 530.8170072501083 1361.7929937015397 513.8173918706503L1361.7929937015397 513.8173918706503L1361.7929937015397 408.0163958140917Q1361.7929937015397 403.86733714520705 1363.867523035982 401.6775561810735Q1365.9420523704243 399.5165881243627 1370.091111039309 399.5165881243627L1370.091111039309 399.5165881243627Q1374.009666448811 399.5165881243627 1376.3146990426358 401.6775561810735Q1378.5909187290379 403.86733714520705 1378.5909187290379 408.0163958140917L1378.5909187290379 408.0163958140917L1378.5909187290379 512.5784368514695Q1378.5909187290379 523.7578449315198 1383.0569193795736 529.2611102492765Q1387.4941071226863 534.7643755670333 1396.2244180717976 534.7643755670333L1396.2244180717976 534.7643755670333Q1398.0972570542804 534.7643755670333 1399.5379024254207 534.5626852150735Q1400.9785477965613 534.360994863114 1402.4480060751248 534.360994863114L1402.4480060751248 534.360994863114Q1404.7242257615267 534.1304916037315 1405.6462387990566 535.398259530335Q1406.5970647440092 536.6372145495159 1406.5970647440092 540.3540796070585L1406.5970647440092 540.3540796070585Q1406.5970647440092 544.0997575720237 1404.9259161134864 545.9725965545064Q1403.283580390386 547.845435536989 1399.5379024254207 548.4505065928681L1399.5379024254207 548.4505065928681Q1397.8667537948977 548.6521969448278 1396.022727719838 548.8827002042102Q1394.1498887373552 549.0843905561699 1392.4787401068324 549.0843905561699ZM1453.8790458248407 549.0843905561699L1453.8790458248407 549.0843905561699Q1438.9539597798248 549.0843905561699 1431.059223145975 539.950698903139Q1423.193299419548 530.8170072501083 1423.193299419548 513.8173918706503L1423.193299419548 513.8173918706503L1423.193299419548 408.0163958140917Q1423.193299419548 403.86733714520705 1425.2678287539902 401.6775561810735Q1427.3423580884328 399.5165881243627 1431.4914167573172 399.5165881243627L1431.4914167573172 399.5165881243627Q1435.4387850742423 399.5165881243627 1437.7150047606442 401.6775561810735Q1439.9912244470463 403.86733714520705 1439.9912244470463 408.0163958140917L1439.9912244470463 408.0163958140917L1439.9912244470463 512.5784368514695Q1439.9912244470463 523.7578449315198 1444.4572250975818 529.2611102492765Q1448.9232257481176 534.7643755670333 1457.624723789806 534.7643755670333L1457.624723789806 534.7643755670333Q1459.4975627722886 534.7643755670333 1460.9382081434292 534.5626852150735Q1462.4076664219924 534.360994863114 1463.848311793133 534.360994863114L1463.848311793133 534.360994863114Q1466.1245314795349 534.1304916037315 1467.0753574244877 535.398259530335Q1467.997370462018 536.6372145495159 1467.997370462018 540.3540796070585L1467.997370462018 540.3540796070585Q1467.997370462018 544.0997575720237 1466.3262218314944 545.9725965545064Q1464.6838861083943 547.845435536989 1460.9382081434292 548.4505065928681L1460.9382081434292 548.4505065928681Q1459.295872420329 548.6521969448278 1457.4230334378462 548.8827002042102Q1455.5501944553637 549.0843905561699 1453.8790458248407 549.0843905561699ZM1534.1806188122123 549.0843905561699L1534.1806188122123 549.0843905561699Q1524.4130431958797 549.0843905561699 1515.077661190889 547.4132419256468Q1505.742279185899 545.7709062025467 1497.7611038297805 542.6591122008832Q1489.779928473662 539.5473181992197 1483.3546501183755 534.7643755670333L1483.3546501183755 534.7643755670333Q1480.847927172591 532.8915365845506 1479.925914135061 530.5000652684574Q1479.003901097531 528.137406859787 1479.5225334311417 525.7459355436938Q1480.0411657647523 523.3544642276005 1481.597062765584 521.6833155970776Q1483.1529597664157 520.0409798739773 1485.4291794528176 519.8392895220177Q1487.7053991392197 519.6087862626352 1490.4138124369638 521.2799348931582L1490.4138124369638 521.2799348931582Q1499.7491944419544 527.9069036004045 1510.3235314661256 530.9322588797995Q1520.8978684902968 533.9288012517718 1534.1806188122123 533.9288012517718L1534.1806188122123 533.9288012517718Q1552.8513828221933 533.9288012517718 1561.8698228455328 526.9848905628746Q1570.8882628688725 520.0409798739773 1570.8882628688725 508.6310685345445L1570.8882628688725 508.6310685345445Q1570.8882628688725 499.2956865295541 1564.3477328838947 493.99411156375703Q1557.8360158063394 488.72134950538276 1542.4787361499816 485.60955550371926L1542.4787361499816 485.60955550371926L1520.8978684902968 481.2299935754521Q1501.3915301650545 477.0809349065675 1491.739206178413 467.6591141793086Q1482.1156950991945 458.20848054462687 1482.1156950991945 442.4478201843498L1482.1156950991945 442.4478201843498Q1482.1156950991945 432.70905747544 1486.0342505086967 424.69906921189875Q1489.9816188256218 416.71789385578035 1497.04078114421 411.01293818606393Q1504.0999434627986 405.3079825163476 1513.8387061717085 402.1961885146841Q1523.606281788041 399.0843945130206 1535.4195738313933 399.0843945130206L1535.4195738313933 399.0843945130206Q1548.500633801349 399.0843945130206 1559.7952935110907 402.71482084829466Q1571.089953220832 406.34524718356874 1580.223644873863 413.6060998541169L1580.223644873863 413.6060998541169Q1582.499864560265 415.4789388365995 1583.3354388755265 417.8704101526928Q1584.171013190788 420.261881468786 1583.537129227486 422.42284952549676Q1582.932058171607 424.6126304896303 1581.3761611707753 426.05327586077084Q1579.8202641699436 427.52273413933415 1577.4287928538502 427.7244244912938Q1575.0373215377572 427.92611484325346 1572.127217888053 426.05327586077084L1572.127217888053 426.05327586077084Q1563.829100550284 419.82968785744384 1554.9259121566356 417.0348358374313Q1545.9939108555645 414.2399838174187 1535.2178834794336 414.2399838174187L1535.2178834794336 414.2399838174187Q1524.21135284392 414.2399838174187 1516.2301774878017 417.55346817104186Q1508.2490021316833 420.866952524665 1503.7830014811477 427.2057921576832Q1499.317000830612 433.51581888327865 1499.317000830612 441.8139362210479L1499.317000830612 441.8139362210479Q1499.317000830612 451.7832021893403 1505.4541501116707 457.60340948874784Q1511.5624864853062 463.3948038807327 1525.450307863101 466.1032171784768L1525.450307863101 466.1032171784768L1547.0311755227856 470.65565655128086Q1567.9781592191687 475.0064055721252 1578.0626768171521 483.8231552435051Q1588.118381507713 492.63990491488494 1588.118381507713 507.79549421928306L1588.118381507713 507.79549421928306Q1588.118381507713 516.9291858723138 1584.3727035427476 524.5934192467813Q1580.655838485205 532.2864655286717 1573.5966761666166 537.7609179390056Q1566.537513848028 543.2641832567623 1556.5682478797357 546.174286906466Q1546.6277948188663 549.0843905561699 1534.1806188122123 549.0843905561699ZM1654.9067009137866 549.0843905561699L1654.9067009137866 549.0843905561699Q1639.7799245168112 549.0843905561699 1628.7733938812978 542.4286089415008Q1617.7668632457844 535.8016402342545 1611.8602172241083 523.873096561211Q1605.9535712024324 511.94455288816766 1605.9535712024324 496.1838925278906L1605.9535712024324 496.1838925278906Q1605.9535712024324 484.14009722515596 1609.2670555560553 474.6030248682058Q1612.5805399096785 465.06595251125566 1619.034631172388 458.32373217431814Q1625.4599095276747 451.58151183738056 1634.4783495510142 448.0375242243749Q1643.496789574354 444.5223495187921 1654.9067009137866 444.5223495187921L1654.9067009137866 444.5223495187921Q1662.3692439362944 444.5223495187921 1670.465670922104 446.7985692051941Q1678.5620979079138 449.0747888915961 1685.18906661516 454.69330583904406L1685.18906661516 454.69330583904406Q1687.2635959496024 456.13395121018453 1687.8974799129041 458.20848054462687Q1688.531363876206 460.2830098790692 1687.8974799129041 462.2711004912431Q1687.2635959496024 464.2303781959942 1685.8229505784618 465.5845848448663Q1684.3823052073212 466.93879149373834 1682.1925242431878 467.140481845698Q1680.0027432790544 467.3421721976577 1677.7265235926523 465.6710235671347L1677.7265235926523 465.6710235671347Q1672.3385099045868 461.5219648982501 1666.7488058645615 459.8796291751499Q1661.1302889171134 458.20848054462687 1655.943965581008 458.20848054462687L1655.943965581008 458.20848054462687Q1647.847538595198 458.20848054462687 1641.8544538512538 460.8016422126798Q1635.8325561998863 463.3948038807327 1631.6834975310016 468.17774651291916Q1627.534438862117 472.93187623768284 1625.3446578979833 479.9910385562713Q1623.1836898412726 487.0502008748598 1623.1836898412726 496.38558287985023L1623.1836898412726 496.38558287985023Q1623.1836898412726 514.4224629265293 1631.6834975310016 524.9103612284323Q1640.1833052207307 535.398259530335 1655.943965581008 535.398259530335L1655.943965581008 535.398259530335Q1661.1302889171134 535.398259530335 1666.6335542348704 533.7271108998121Q1672.136819552627 532.0559622692891 1677.7265235926523 527.9069036004045L1677.7265235926523 527.9069036004045Q1680.0027432790544 526.2645678773043 1682.0772726134965 526.466258229264Q1684.151801947939 526.6679485812236 1685.6212602265023 528.0221552300957Q1687.0619055976426 529.3763618789678 1687.5805379312533 531.4508912134102Q1688.099170264864 533.5254205478525 1687.4940992089848 535.4846982526035Q1686.8602152456829 537.4727888647774 1684.7856859112408 538.913434235918L1684.7856859112408 538.913434235918Q1678.1587172039945 544.3014479239835 1670.2639805701444 546.6929192400767Q1662.3692439362944 549.0843905561699 1654.9067009137866 549.0843905561699ZM1748.0588306117315 549.0843905561699L1748.0588306117315 549.0843905561699Q1733.3354349186757 549.0843905561699 1722.5305946351218 542.6591122008832Q1711.7545672589908 536.2050209381738 1705.847921237315 524.5069805245129Q1699.941275215639 512.7801272034292 1699.941275215639 496.7889635837696L1699.941275215639 496.7889635837696Q1699.941275215639 484.7739811884578 1703.254759569262 475.1216572018164Q1706.5682439228851 465.469333215175 1712.993522278172 458.64067415596907Q1719.4188006334584 451.7832021893403 1728.2355503048384 448.15277585406614Q1737.0522999762184 444.5223495187921 1748.0588306117315 444.5223495187921L1748.0588306117315 444.5223495187921Q1762.7822263047879 444.5223495187921 1773.5870665883413 450.94762787407876Q1784.3630939644722 457.3729062293654 1790.2697399861486 469.0997595504491Q1796.1763860078245 480.8266128715328 1796.1763860078245 496.7889635837696L1796.1763860078245 496.7889635837696Q1796.1763860078245 508.8327588865042 1792.8629016542013 518.3698312434543Q1789.5494173005782 527.9069036004045 1783.1241389452916 534.8796271967245Q1776.6988605900046 541.8235378856218 1767.8821109186251 545.4539642208958Q1759.0653612472452 549.0843905561699 1748.0588306117315 549.0843905561699ZM1748.0588306117315 535.5999498822948L1748.0588306117315 535.5999498822948Q1757.3942126167221 535.5999498822948 1764.4533749353109 531.018697602068Q1771.5125372538992 526.466258229264 1775.344653941133 517.7647601875753Q1779.1767706283667 509.0344492384639 1779.1767706283667 496.7889635837696L1779.1767706283667 496.7889635837696Q1779.1767706283667 477.91650922182896 1770.7634016609059 467.9760561609595Q1762.3788456008683 458.0067901926672 1748.0588306117315 458.0067901926672L1748.0588306117315 458.0067901926672Q1738.5217582547816 458.0067901926672 1731.577847565884 462.4727908432028Q1724.6051239695644 466.93879149373834 1720.7730072823306 475.52503790573576Q1716.9408905950968 484.14009722515596 1716.9408905950968 496.7889635837696L1716.9408905950968 496.7889635837696Q1716.9408905950968 515.4597275937506 1725.4406982848254 525.544245191734Q1733.9405059745545 535.5999498822948 1748.0588306117315 535.5999498822948ZM1857.1733110219134 549.0843905561699L1857.1733110219134 549.0843905561699Q1844.9278253672192 549.0843905561699 1836.9466500111007 544.6183899056343Q1828.9654746549822 540.1523892550988 1824.9316676157891 531.2492008614504Q1820.8690476691727 522.3171995603793 1820.8690476691727 509.0344492384639L1820.8690476691727 509.0344492384639L1820.8690476691727 453.45435081986324Q1820.8690476691727 449.0747888915961 1823.0588286333063 447.00025955715375Q1825.2197966900171 444.9257302227114 1829.167165006942 444.9257302227114L1829.167165006942 444.9257302227114Q1833.3162236758267 444.9257302227114 1835.5060046399603 447.00025955715375Q1837.666972696671 449.0747888915961 1837.666972696671 453.45435081986324L1837.666972696671 453.45435081986324L1837.666972696671 508.8327588865042Q1837.666972696671 522.1155092084197 1843.1702380144275 528.6560391933975Q1848.6735033321843 535.1677562709526 1860.4867953755365 535.1677562709526L1860.4867953755365 535.1677562709526Q1873.3661649935325 535.1677562709526 1881.4625919793425 526.466258229264Q1889.5302060577292 517.7647601875753 1889.5302060577292 503.6464355503984L1889.5302060577292 503.6464355503984L1889.5302060577292 453.45435081986324Q1889.5302060577292 449.0747888915961 1891.7199870218628 447.00025955715375Q1893.9097679859965 444.9257302227114 1898.0588266548812 444.9257302227114L1898.0588266548812 444.9257302227114Q1901.9773820643832 444.9257302227114 1904.1671630285168 447.00025955715375Q1906.35694399265 449.0747888915961 1906.35694399265 453.45435081986324L1906.35694399265 453.45435081986324L1906.35694399265 539.950698903139Q1906.35694399265 548.6521969448278 1898.2605170068405 548.6521969448278L1898.2605170068405 548.6521969448278Q1894.3131486899156 548.6521969448278 1892.123367725782 546.3759772584258Q1889.9623996690716 544.0997575720237 1889.9623996690716 539.950698903139L1889.9623996690716 539.950698903139L1889.9623996690716 521.0782445411985L1892.6420000593926 523.9883481909023Q1888.4929413905083 536.2050209381738 1879.071120663249 542.6591122008832Q1869.6204870285674 549.0843905561699 1857.1733110219134 549.0843905561699ZM1978.3315867348297 549.0843905561699L1978.3315867348297 549.0843905561699Q1966.5182946914774 549.0843905561699 1958.5083064279365 544.820080257594Q1950.527131071818 540.5845828664409 1946.5797627548932 532.3729042509401Q1942.6612073453912 524.190038542862 1942.6612073453912 512.347933592087L1942.6612073453912 512.347933592087L1942.6612073453912 459.44743556380774L1928.7445730601735 459.44743556380774Q1925.229398354591 459.44743556380774 1923.3565593721082 457.6898482110163Q1921.4837203896254 455.9322608582249 1921.4837203896254 452.82046685656144L1921.4837203896254 452.82046685656144Q1921.4837203896254 449.7086728548979 1923.3565593721082 448.0375242243749Q1925.229398354591 446.39518850127473 1928.7445730601735 446.39518850127473L1928.7445730601735 446.39518850127473L1942.6612073453912 446.39518850127473L1942.6612073453912 422.538101155188Q1942.6612073453912 418.3890424863033 1944.937427031793 416.19926152216976Q1947.213646718195 414.038293465459 1951.1610150351198 414.038293465459L1951.1610150351198 414.038293465459Q1955.1083833520452 414.038293465459 1957.2693514087555 416.19926152216976Q1959.4591323728891 418.3890424863033 1959.4591323728891 422.538101155188L1959.4591323728891 422.538101155188L1959.4591323728891 446.39518850127473L1985.5924394053782 446.39518850127473Q1989.1076141109606 446.39518850127473 1990.9804530934434 448.0375242243749Q1992.8532920759262 449.7086728548979 1992.8532920759262 452.82046685656144L1992.8532920759262 452.82046685656144Q1992.8532920759262 455.9322608582249 1990.9804530934434 457.6898482110163Q1989.1076141109606 459.44743556380774 1985.5924394053782 459.44743556380774L1985.5924394053782 459.44743556380774L1959.4591323728891 459.44743556380774L1959.4591323728891 510.70559786898684Q1959.4591323728891 522.518889912339 1964.4437653570353 528.6560391933975Q1969.3995854337586 534.7643755670333 1980.607806421232 534.7643755670333L1980.607806421232 534.7643755670333Q1984.555174738157 534.7643755670333 1987.3500267581694 533.9288012517718Q1990.144878778182 533.0932269365103 1992.0177177606647 533.0932269365103L1992.0177177606647 533.0932269365103Q1993.890556743147 532.8915365845506 1995.129511762328 534.360994863114Q1996.3684667815091 535.8016402342545 1996.3684667815091 539.3168149398373L1996.3684667815091 539.3168149398373Q1996.3684667815091 541.8235378856218 1995.446453743979 543.8980672200641Q1994.5244407064488 545.9725965545064 1992.2194081126245 546.8081708697679L1992.2194081126245 546.8081708697679Q1989.7414980742628 547.6149322776066 1985.7076910350693 548.3640678705997Q1981.6450710884533 549.0843905561699 1978.3315867348297 549.0843905561699Z " fill="#8000ff" transform="matrix(0.4382958424172358,0,0,0.4382958424172358,0,92.21078316667406)"/></g></svg>